{"title":"Now You See Me -2 (2016) HQ 1080p BDRip x264 AC3 5.1 ESub -DDR","uid":15611731,"size":10153133859,"categoryP":"video","categoryS":"hd___movies","magnet":"?xt=urn:btih:f2b52c1f643485995adb5987389b264a40f8162d&amp;dn=Now+You+See+Me+-2+%282016%29+HQ+1080p+BDRip+x264+AC3+5.1+ESub+-DDR&amp;tr=udp%3A%2F%2Ftracker.leechers-paradise.org%3A6969&amp;tr=udp%3A%2F%2Fzer0day.ch%3A1337&amp;tr=udp%3A%2F%2Fopen.demonii.com%3A1337&amp;tr=udp%3A%2F%2Ftracker.coppersurfer.tk%3A6969&amp;tr=udp%3A%2F%2Fexodus.desync.com%3A6969","seeders":9,"leechers":5,"uploader":"SaM","files":3,"time":1471790861,"description":"- HollyWooD Movie-\r\n\r\nNow You See Me\r\n- 2 -\r\n** 2016 **\r\nHQ 1080p / Blu-ray / x264\r\nEnglish AC3 5.1\r\nEnglish subs\r\n \nhttp://extraimago.com/image/w1EG \nhttp://extraimago.com/image/w1Er \nhttp://extraimago.com/image/w1Ep \nhttp://extraimago.com/image/w1EY \nhttp://extraimago.com/image/w1EC \nhttp://extraimago.com/image/w1EB \nhttp://extraimago.com/image/w1E4 \nhttp://extraimago.com/image/w1Ee \nhttp://extraimago.com/image/w1EZ \nhttp://extraimago.com/image/w1EK \nhttp://extraimago.com/image/w1EJ \nhttp://extraimago.com/image/w1E0 \nhttp://extraimago.com/image/w1EU\r\n\r\nSOURCE: Russian Bluray @ HDC + iTunes (US) - Thank you\r\n\r\nFile size : 9.38 GiB\r\nDuration : 2h 9mn\r\nOverall bit rate : 10.4 Mbps\r\n\r\nVideo\r\nFormat : AVC\r\nFormat/Info : Advanced Video Codec\r\nFormat profile :   \r\nFormat settings, CABAC : Yes\r\nFormat settings, ReFrames : 4 frames\r\nCodec ID : V_MPEG4/ISO/AVC\r\nDuration : 2h 9mn\r\nBit rate : 10 000 Kbps\r\nWidth : 1 920 pixels\r\nHeight : 1 080 pixels\r\nDisplay aspect ratio : 16:9\r\nFrame rate mode : Constant\r\nFrame rate : 24.000 fps\r\ncolor space : YUV\r\nChroma subsampling : 4:2:0\r\nBit depth : 8 bits\r\nScan type : Progressive\r\nBits/(Pixel*Frame) : 0.201\r\nStream size : 9.03 GiB (96%)\r\n\r\nAudio\r\nFormat : AC-3\r\nFormat/Info : Audio Coding 3\r\nMode extension : CM (complete main)\r\nFormat settings, Endianness : Big\r\nCodec ID : A_AC3\r\nDuration : 2h 9mn\r\nBit rate mode : Constant\r\nBit rate : 384 Kbps\r\nChannel(s) : 6 channels\r\nChannel positions : Front: L C R, Side: L R, LFE\r\nSampling rate : 48.0 KHz\r\nFrame rate : 31.250 fps (1536 spf)\r\nCompression mode : Lossy\r\nStream size : 354 MiB (4%)\r\nLanguage : English\r\nDefault : Yes\r\nForced : No\r\n\r\nChapters = Yes\r\nSample : Included","torrent":{"xt":"urn:btih:f2b52c1f643485995adb5987389b264a40f8162d","amp;dn":"Now+You+See+Me+-2+%282016%29+HQ+1080p+BDRip+x264+AC3+5.1+ESub+-DDR","amp;tr":["udp%3A%2F%2Ftracker.leechers-paradise.org%3A6969","udp%3A%2F%2Fzer0day.ch%3A1337","udp%3A%2F%2Fopen.demonii.com%3A1337","udp%3A%2F%2Ftracker.coppersurfer.tk%3A6969","udp%3A%2F%2Fexodus.desync.com%3A6969"],"infoHash":"f2b52c1f643485995adb5987389b264a40f8162d","infoHashBuffer":{"type":"Buffer","data":[242,181,44,31,100,52,133,153,90,219,89,135,56,155,38,74,64,248,22,45]},"announce":[],"urlList":[]}}